# Blender 3.4.0 Alpha
# www.blender.org
mtllib touch_sensor_thumb_tip.mtl
o Sphere
v 0.056698 -0.000950 0.005534
v 0.056608 -0.001279 -0.004846
v 0.076867 0.002603 0.005418
v 0.057658 -0.003829 0.005903
v 0.057698 -0.004276 -0.004698
v 0.076639 0.002156 -0.005141
v 0.058382 -0.002171 -0.005139
v 0.075722 0.005248 -0.005314
v 0.075718 0.005424 0.005413
v 0.050103 0.003497 -0.006195
v 0.052189 0.000010 0.007074
v 0.049850 0.005267 0.005396
v 0.050409 0.002830 0.006892
v 0.050075 -0.000055 0.005914
v 0.052199 -0.002807 0.005049
v 0.053436 -0.004388 0.001238
v 0.049757 0.007324 0.001694
v 0.047995 0.003291 0.003235
v 0.048117 0.005484 0.001296
v 0.049156 -0.001710 0.001973
v 0.047620 0.001914 -0.001698
v 0.051079 -0.003814 0.000294
v 0.049725 -0.002059 -0.002820
v 0.048592 0.006261 -0.001538
v 0.048355 0.003027 -0.004094
v 0.049526 0.006625 -0.002736
v 0.050741 -0.000256 -0.006384
v 0.052089 -0.002343 -0.005186
v 0.052392 -0.003913 -0.002766
v 0.072760 0.013086 0.005041
v 0.075463 0.003110 0.000048
v 0.073318 0.009630 0.006954
v 0.074872 0.007607 0.006540
v 0.075696 0.004598 0.004042
v 0.075700 0.010438 0.004615
v 0.076886 0.007093 0.003151
v 0.074694 0.013237 0.002288
v 0.076894 0.004999 0.000262
v 0.076484 0.010964 0.000241
v 0.072916 0.014547 -0.000183
v 0.077149 0.007056 -0.002033
v 0.075779 0.003692 -0.002359
v 0.073843 0.013113 -0.003924
v 0.075570 0.009839 -0.005137
v 0.071927 0.014096 -0.003199
v 0.074846 0.006007 -0.006044
v 0.072659 0.010059 -0.007057
v 0.072268 0.011776 -0.006108
v 0.071373 0.014692 0.000652
vn 0.9262 0.3770 -0.0058
vn -0.0800 0.1637 -0.9833
vn 0.0123 -0.0524 -0.9986
vn -0.9492 -0.3143 0.0182
vn -0.2245 -0.1295 -0.9658
vn -0.3178 0.9480 -0.0157
vn 0.3182 -0.9471 0.0411
vn -0.9399 -0.3414 0.0108
vn -0.0184 0.0529 0.9984
vn 0.3211 -0.8934 0.3143
vn 0.3071 -0.9324 -0.1908
vn 0.2865 -0.8485 0.4450
vn -0.1640 0.4484 -0.8787
vn 0.2673 -0.7927 -0.5478
vn -0.2782 0.8367 0.4718
vn -0.2570 0.6950 -0.6715
vn -0.3142 0.9303 -0.1891
vn -0.4619 -0.2363 0.8549
vn -0.3929 -0.5377 0.7460
vn -0.8154 0.1554 0.5577
vn -0.8365 -0.0867 0.5411
vn -0.7367 0.5831 0.3424
vn -0.5749 -0.7624 0.2970
vn -0.8970 -0.2918 0.3319
vn -0.7510 0.6580 0.0545
vn -0.9552 -0.2581 0.1447
vn -0.9700 0.2205 -0.1021
vn -0.9565 0.2208 -0.1909
vn -0.4822 0.8689 -0.1118
vn -0.8485 -0.3337 -0.4107
vn -0.8492 -0.3287 -0.4134
vn -0.5731 -0.6538 -0.4941
vn -0.7788 0.3951 -0.4873
vn 0.0723 -0.1466 0.9865
vn -0.1543 0.4909 0.8574
vn 0.2185 -0.5872 0.7794
vn -0.2772 0.8707 0.4062
vn 0.4718 0.3971 0.7872
vn 0.8622 0.0871 0.4991
vn 0.2332 0.9347 0.2683
vn 0.8512 0.4809 0.2103
vn 0.9965 -0.0664 0.0511
vn 0.7285 0.6756 -0.1132
vn 0.9331 0.2858 -0.2183
vn 0.8160 0.5222 -0.2478
vn 0.0111 0.9884 -0.1513
vn 0.8574 -0.3093 -0.4114
vn 0.8717 -0.0494 -0.4875
vn 0.5018 0.5032 -0.7035
vn 0.9587 0.2824 -0.0326
vn 0.3221 -0.9461 0.0331
vn -0.0328 0.1166 0.9926
vn -0.3236 0.9458 -0.0272
vn 0.0217 0.0106 0.9997
vn 0.0523 -0.2211 -0.9739
vn -0.0503 0.0417 -0.9979
vn 0.2666 -0.7843 -0.5602
vn 0.1249 -0.4323 -0.8930
vn -0.3255 0.9365 -0.1307
vn -0.8445 0.3802 0.3772
vn -0.3283 -0.9054 0.2692
vn -0.6509 -0.6337 0.4181
vn -0.9940 0.0976 0.0484
vn -0.8896 -0.4508 -0.0729
vn -0.2133 -0.9751 -0.0602
vn -0.7540 -0.6556 -0.0419
vn -0.5550 -0.8043 -0.2123
vn -0.5119 -0.7485 -0.4215
vn -0.7548 -0.0957 -0.6490
vn -0.7322 0.4544 -0.5074
vn 0.0677 -0.2074 -0.9759
vn 0.3068 -0.9335 -0.1857
vn -0.1396 0.4622 0.8757
vn -0.2596 0.7399 -0.6206
vn 0.2097 -0.5702 0.7943
vn 0.7063 0.4267 0.5649
vn 0.8268 -0.2076 0.5228
vn 0.6262 0.6191 0.4739
vn 0.3056 0.9146 0.2649
vn 0.7740 -0.6067 0.1811
vn 0.9055 -0.3424 0.2508
vn 0.9478 0.2485 0.1997
vn 0.9890 0.1397 0.0492
vn 0.7987 -0.6003 -0.0406
vn 0.6824 0.7229 -0.1078
vn 0.9119 -0.3507 -0.2133
vn 0.3640 0.8963 -0.2532
vn 0.5075 0.5218 -0.6857
vn 0.1723 0.7798 -0.6019
vn 0.5530 0.0915 -0.8282
vt 0.615423 0.007953
vt 0.616691 0.993645
vt 0.868824 0.732139
vt 0.599838 0.249434
vt 0.873170 0.503804
vt 0.401941 0.747869
vt 0.126166 0.747174
vt 0.407173 0.000869
vt 0.409248 0.998219
vt 0.127309 0.503647
vt 0.407649 0.250750
vt 0.393357 0.503990
vt 0.503592 0.266802
vt 0.608007 0.494904
vt 0.616789 0.505848
vt 0.613084 0.744608
vt 0.780183 0.625872
vt 0.222019 0.411149
vt 0.192207 0.722284
vt 0.190529 0.566426
vt 0.137837 0.442057
vt 0.173454 0.260478
vt 0.762965 0.012795
vt 0.122547 0.086877
vt 0.917711 0.069893
vt 0.158480 0.914496
vt 0.817384 0.985326
vt 0.069049 0.646312
vt 0.996427 0.805929
vt 0.038853 0.797255
vt 0.032738 0.381001
vt 0.992965 0.352017
vt 0.001621 0.589870
vt 0.955908 0.584946
vt 0.022877 0.191482
vt 0.976819 0.221009
vt 0.908332 0.356775
vt 0.009897 0.894503
vt 0.910059 0.840177
vt 0.876605 0.635154
vt 0.783012 0.861682
vt 0.797977 0.448233
vt 0.780928 0.299577
vt 0.833477 0.177997
vt 0.290439 0.724148
vt 0.690656 0.028409
vt 0.544421 0.058670
vt 0.260449 0.529782
vt 0.291428 0.408715
vt 0.315025 0.217437
vt 0.374676 0.535774
vt 0.410820 0.349252
vt 0.416597 0.694969
vt 0.474218 0.221530
vt 0.483847 0.546211
vt 0.495023 0.848139
vt 0.546320 0.353232
vt 0.638948 0.168072
vt 0.599272 0.696728
vt 0.614572 0.522373
vt 0.671924 0.834040
vt 0.692118 0.346091
vt 0.716749 0.524986
vt 0.715234 0.676937
vt 0.428591 0.933480
s 0
f 8/14/1 9/16/1 3/6/1
f 2/4/2 8/14/2 7/13/2
f 8/14/3 6/12/3 7/13/3
f 1/1/4 2/4/4 4/8/4
f 2/4/5 7/13/5 5/11/5
f 8/15/6 1/3/6 9/16/6
f 5/10/7 3/6/7 4/7/7
f 2/4/8 5/11/8 4/8/8
f 13/20/9 11/18/9 32/48/9
f 16/24/10 31/47/10 34/50/10
f 29/44/11 31/46/11 16/23/11
f 16/24/12 34/50/12 15/22/12
f 10/17/13 48/64/13 47/63/13
f 28/43/14 42/58/14 29/44/14
f 12/19/15 30/45/15 17/26/15
f 10/17/16 26/41/16 48/64/16
f 26/41/17 49/65/17 45/61/17
f 13/20/18 14/21/18 11/18/18
f 11/18/19 14/21/19 15/22/19
f 12/19/20 18/28/20 13/20/20
f 13/20/21 18/28/21 14/21/21
f 17/26/22 19/30/22 12/19/22
f 15/22/23 20/31/23 22/35/23
f 18/28/24 20/31/24 14/21/24
f 17/26/25 24/38/25 19/30/25
f 18/28/26 21/33/26 20/31/26
f 19/29/27 24/39/27 21/34/27
f 21/34/28 24/39/28 25/40/28
f 24/39/29 17/27/29 26/41/29
f 21/34/30 27/42/30 23/37/30
f 21/34/31 25/40/31 27/42/31
f 27/42/32 28/43/32 23/37/32
f 24/39/33 26/41/33 10/17/33
f 11/18/34 33/49/34 32/48/34
f 13/20/35 30/45/35 12/19/35
f 15/22/36 34/50/36 33/49/36
f 30/45/37 49/65/37 17/26/37
f 35/51/38 30/45/38 33/49/38
f 35/51/39 33/49/39 36/52/39
f 40/56/40 49/65/40 30/45/40
f 39/55/41 37/53/41 35/51/41
f 41/57/42 36/52/42 38/54/42
f 43/59/43 37/53/43 39/55/43
f 44/60/44 39/55/44 41/57/44
f 43/59/45 39/55/45 44/60/45
f 49/65/46 40/56/46 45/61/46
f 46/62/47 41/57/47 42/58/47
f 46/62/48 44/60/48 41/57/48
f 48/64/49 44/60/49 47/63/49
f 6/12/50 8/14/50 3/6/50
f 6/12/51 3/6/51 5/10/51
f 4/9/52 9/16/52 1/2/52
f 8/15/53 2/5/53 1/3/53
f 3/6/54 9/16/54 4/9/54
f 5/11/55 7/13/55 6/12/55
f 10/17/56 47/63/56 27/42/56
f 28/43/57 46/62/57 42/58/57
f 27/42/58 46/62/58 28/43/58
f 26/41/59 17/27/59 49/65/59
f 12/19/60 19/30/60 18/28/60
f 16/24/61 15/22/61 22/35/61
f 15/22/62 14/21/62 20/31/62
f 18/28/63 19/30/63 21/33/63
f 20/32/64 21/34/64 23/37/64
f 22/36/65 29/44/65 16/25/65
f 20/32/66 23/37/66 22/36/66
f 22/36/67 23/37/67 29/44/67
f 23/37/68 28/43/68 29/44/68
f 27/42/69 25/40/69 10/17/69
f 25/40/70 24/39/70 10/17/70
f 27/42/71 47/63/71 46/62/71
f 29/44/72 42/58/72 31/46/72
f 13/20/73 32/48/73 30/45/73
f 48/64/74 26/41/74 45/61/74
f 11/18/75 15/22/75 33/49/75
f 33/49/76 30/45/76 32/48/76
f 36/52/77 33/49/77 34/50/77
f 35/51/78 37/53/78 30/45/78
f 37/53/79 40/56/79 30/45/79
f 38/54/80 34/50/80 31/47/80
f 36/52/81 34/50/81 38/54/81
f 39/55/82 35/51/82 36/52/82
f 41/57/83 39/55/83 36/52/83
f 31/47/84 42/58/84 38/54/84
f 43/59/85 40/56/85 37/53/85
f 42/58/86 41/57/86 38/54/86
f 45/61/87 40/56/87 43/59/87
f 48/64/88 43/59/88 44/60/88
f 48/64/89 45/61/89 43/59/89
f 46/62/90 47/63/90 44/60/90
