# Blender v3.4.0 Alpha OBJ File: 'touch_sensor_base.blend'
# www.blender.org
mtllib touch_sensor_base.mtl
o Cube.002
v -0.006281 -0.010040 -0.013654
v -0.006281 -0.010040 0.013654
v -0.006281 0.007468 0.013654
v -0.006281 0.007468 -0.013654
v 0.011228 0.007468 0.013654
v 0.011228 0.007468 -0.013654
v 0.011228 -0.010040 0.013654
v 0.011228 -0.010040 -0.013654
v 0.027751 -0.007917 -0.009176
v 0.027751 -0.007917 0.009176
v 0.022712 0.004639 0.009176
v 0.022712 0.004639 -0.009176
v 0.031997 0.008365 0.009176
v 0.031997 0.008365 -0.009176
v 0.037036 -0.004191 0.009176
v 0.037036 -0.004191 -0.009176
v 0.011237 -0.009024 -0.013654
v 0.011237 -0.009024 0.013654
v 0.011237 0.008484 0.013654
v 0.011237 0.008484 -0.013654
v 0.015474 0.008484 0.013654
v 0.015474 0.008484 -0.013654
v 0.015474 -0.009024 0.013654
v 0.015474 -0.009024 -0.013654
v 0.015167 -0.009024 -0.009100
v 0.015167 -0.009024 0.009298
v 0.015167 0.008484 0.009298
v 0.015167 0.008484 -0.009100
v 0.029411 0.008484 0.009298
v 0.029411 0.008484 -0.009100
v 0.029411 -0.009024 0.009298
v 0.029411 -0.009024 -0.009100
vt 0.375000 0.000000
vt 0.625000 0.000000
vt 0.625000 0.250000
vt 0.375000 0.250000
vt 0.625000 0.500000
vt 0.375000 0.500000
vt 0.625000 0.750000
vt 0.375000 0.750000
vt 0.625000 1.000000
vt 0.375000 1.000000
vt 0.125000 0.500000
vt 0.125000 0.750000
vt 0.875000 0.500000
vt 0.875000 0.750000
vt 0.375000 0.000000
vt 0.625000 0.000000
vt 0.625000 0.250000
vt 0.375000 0.250000
vt 0.625000 0.500000
vt 0.375000 0.500000
vt 0.625000 0.750000
vt 0.375000 0.750000
vt 0.625000 1.000000
vt 0.375000 1.000000
vt 0.125000 0.500000
vt 0.125000 0.750000
vt 0.875000 0.500000
vt 0.875000 0.750000
vt 0.375000 0.000000
vt 0.625000 0.000000
vt 0.625000 0.250000
vt 0.375000 0.250000
vt 0.625000 0.500000
vt 0.375000 0.500000
vt 0.625000 0.750000
vt 0.375000 0.750000
vt 0.625000 1.000000
vt 0.375000 1.000000
vt 0.125000 0.500000
vt 0.125000 0.750000
vt 0.875000 0.500000
vt 0.875000 0.750000
vt 0.375000 0.000000
vt 0.625000 0.000000
vt 0.625000 0.250000
vt 0.375000 0.250000
vt 0.625000 0.500000
vt 0.375000 0.500000
vt 0.625000 0.750000
vt 0.375000 0.750000
vt 0.625000 1.000000
vt 0.375000 1.000000
vt 0.125000 0.500000
vt 0.125000 0.750000
vt 0.875000 0.500000
vt 0.875000 0.750000
vn -1.0000 0.0000 0.0000
vn 0.0000 1.0000 -0.0000
vn 1.0000 0.0000 0.0000
vn 0.0000 -1.0000 0.0000
vn 0.0000 -0.0000 -1.0000
vn 0.0000 0.0000 1.0000
vn -0.9281 -0.3724 0.0000
vn -0.3724 0.9281 -0.0000
vn 0.9281 0.3724 -0.0000
vn 0.3724 -0.9281 0.0000
usemtl None.001
s 1
f 1/1/1 2/2/1 3/3/1 4/4/1
f 4/4/2 3/3/2 5/5/2 6/6/2
f 6/6/3 5/5/3 7/7/3 8/8/3
f 8/8/4 7/7/4 2/9/4 1/10/4
f 4/11/5 6/6/5 8/8/5 1/12/5
f 5/5/6 3/13/6 2/14/6 7/7/6
f 9/15/7 10/16/7 11/17/7 12/18/7
f 12/18/8 11/17/8 13/19/8 14/20/8
f 14/20/9 13/19/9 15/21/9 16/22/9
f 16/22/10 15/21/10 10/23/10 9/24/10
f 12/25/5 14/20/5 16/22/5 9/26/5
f 13/19/6 11/27/6 10/28/6 15/21/6
f 17/29/1 18/30/1 19/31/1 20/32/1
f 20/32/2 19/31/2 21/33/2 22/34/2
f 22/34/3 21/33/3 23/35/3 24/36/3
f 24/36/4 23/35/4 18/37/4 17/38/4
f 20/39/5 22/34/5 24/36/5 17/40/5
f 21/33/6 19/41/6 18/42/6 23/35/6
f 25/43/1 26/44/1 27/45/1 28/46/1
f 28/46/2 27/45/2 29/47/2 30/48/2
f 30/48/3 29/47/3 31/49/3 32/50/3
f 32/50/4 31/49/4 26/51/4 25/52/4
f 28/53/5 30/48/5 32/50/5 25/54/5
f 29/47/6 27/55/6 26/56/6 31/49/6
