# Blender 4.1.1
# www.blender.org
mtllib asset_socket.mtl
o 0
v -0.000000 0.003746 0.000103
v 0.001281 0.003520 0.000103
v 0.002408 0.002870 0.000103
v 0.003244 0.001873 0.000103
v 0.003689 0.000651 0.000103
v 0.003689 -0.000651 0.000103
v 0.003244 -0.001873 0.000103
v 0.002408 -0.002870 0.000103
v 0.001281 -0.003520 0.000103
v -0.000000 -0.003746 0.000103
v -0.001281 -0.003520 0.000103
v -0.002408 -0.002870 0.000103
v -0.003244 -0.001873 0.000103
v -0.003689 -0.000651 0.000103
v -0.003689 0.000651 0.000103
v -0.003244 0.001873 0.000103
v -0.002408 0.002870 0.000103
v -0.001281 0.003520 0.000103
v 0.000000 0.003746 0.026047
v -0.001281 0.003520 0.026047
v -0.002408 0.002870 0.026047
v -0.003244 0.001873 0.026047
v -0.003689 0.000651 0.026047
v -0.003689 -0.000651 0.026047
v -0.003244 -0.001873 0.026047
v -0.002408 -0.002870 0.026047
v -0.001281 -0.003520 0.026047
v 0.000000 -0.003746 0.026047
v 0.001281 -0.003520 0.026047
v 0.002408 -0.002870 0.026047
v 0.003244 -0.001873 0.026047
v 0.003689 -0.000651 0.026047
v 0.003689 0.000651 0.026047
v 0.003244 0.001873 0.026047
v 0.002408 0.002870 0.026047
v 0.001281 0.003520 0.026047
v -0.000000 0.005619 0.000103
v -0.001583 0.005392 0.000103
v -0.003038 0.004727 0.000103
v -0.004247 0.003680 0.000103
v -0.005111 0.002334 0.000103
v -0.005562 0.000800 0.000103
v -0.005562 -0.000800 0.000103
v -0.005111 -0.002334 0.000103
v -0.004247 -0.003680 0.000103
v -0.003038 -0.004727 0.000103
v -0.001583 -0.005392 0.000103
v -0.000000 -0.005619 0.000103
v 0.001583 -0.005392 0.000103
v 0.003038 -0.004727 0.000103
v 0.004247 -0.003680 0.000103
v 0.005111 -0.002334 0.000103
v 0.005562 -0.000800 0.000103
v 0.005562 0.000800 0.000103
v 0.005111 0.002334 0.000103
v 0.004247 0.003680 0.000103
v 0.003038 0.004727 0.000103
v 0.001583 0.005392 0.000103
v 0.000000 0.005619 0.026047
v 0.001583 0.005392 0.026047
v 0.003038 0.004727 0.026047
v 0.004247 0.003680 0.026047
v 0.005111 0.002334 0.026047
v 0.005562 0.000800 0.026047
v 0.005562 -0.000800 0.026047
v 0.005111 -0.002334 0.026047
v 0.004247 -0.003680 0.026047
v 0.003038 -0.004727 0.026047
v 0.001583 -0.005392 0.026047
v 0.000000 -0.005619 0.026047
v -0.001583 -0.005392 0.026047
v -0.003038 -0.004727 0.026047
v -0.004247 -0.003680 0.026047
v -0.005111 -0.002334 0.026047
v -0.005562 -0.000800 0.026047
v -0.005562 0.000800 0.026047
v -0.005111 0.002334 0.026047
v -0.004247 0.003680 0.026047
v -0.003038 0.004727 0.026047
v -0.001583 0.005392 0.026047
vn -0.1736 -0.9848 -0.0000
vn 0.1736 -0.9848 -0.0000
vn 0.5000 -0.8660 -0.0000
vn 0.7660 -0.6428 -0.0000
vn 0.9397 -0.3420 -0.0000
vn 1.0000 -0.0000 -0.0000
vn 0.9397 0.3420 -0.0000
vn 0.7660 0.6428 -0.0000
vn 0.5000 0.8660 -0.0000
vn 0.1736 0.9848 -0.0000
vn -0.1736 0.9848 -0.0000
vn -0.5000 0.8660 -0.0000
vn -0.7660 0.6428 -0.0000
vn -0.9397 0.3420 -0.0000
vn -1.0000 -0.0000 -0.0000
vn -0.9397 -0.3420 -0.0000
vn -0.7660 -0.6428 -0.0000
vn -0.5000 -0.8660 -0.0000
vn -0.1423 0.9898 -0.0000
vn 0.1423 0.9898 -0.0000
vn 0.4154 0.9096 -0.0000
vn 0.6549 0.7557 -0.0000
vn 0.8413 0.5406 -0.0000
vn 0.9595 0.2817 -0.0000
vn 0.9595 -0.2817 -0.0000
vn 0.8413 -0.5406 -0.0000
vn 0.6549 -0.7557 -0.0000
vn 0.4154 -0.9096 -0.0000
vn 0.1423 -0.9898 -0.0000
vn -0.1423 -0.9898 -0.0000
vn -0.4154 -0.9096 -0.0000
vn -0.6549 -0.7557 -0.0000
vn -0.8413 -0.5406 -0.0000
vn -0.9595 -0.2817 -0.0000
vn -0.9595 0.2817 -0.0000
vn -0.8413 0.5406 -0.0000
vn -0.6549 0.7557 -0.0000
vn -0.4154 0.9096 -0.0000
vn -0.0000 -0.0000 -1.0000
vn -0.0000 -0.0000 1.0000
s 0
usemtl Material.001
f 2//1 36//1 1//1
f 1//1 36//1 19//1
f 1//2 19//2 18//2
f 18//2 19//2 20//2
f 18//3 20//3 17//3
f 17//3 20//3 21//3
f 17//4 21//4 16//4
f 16//4 21//4 22//4
f 16//5 22//5 15//5
f 15//5 22//5 23//5
f 15//6 23//6 14//6
f 14//6 23//6 24//6
f 14//7 24//7 13//7
f 13//7 24//7 25//7
f 13//8 25//8 12//8
f 12//8 25//8 26//8
f 12//9 26//9 11//9
f 11//9 26//9 27//9
f 11//10 27//10 10//10
f 10//10 27//10 28//10
f 10//11 28//11 9//11
f 9//11 28//11 29//11
f 9//12 29//12 8//12
f 8//12 29//12 30//12
f 8//13 30//13 7//13
f 7//13 30//13 31//13
f 7//14 31//14 6//14
f 6//14 31//14 32//14
f 6//15 32//15 5//15
f 5//15 32//15 33//15
f 5//16 33//16 4//16
f 4//16 33//16 34//16
f 4//17 34//17 3//17
f 3//17 34//17 35//17
f 3//18 35//18 2//18
f 2//18 35//18 36//18
f 38//19 80//19 37//19
f 37//19 80//19 59//19
f 37//20 59//20 58//20
f 58//20 59//20 60//20
f 58//21 60//21 57//21
f 57//21 60//21 61//21
f 57//22 61//22 56//22
f 56//22 61//22 62//22
f 56//23 62//23 55//23
f 55//23 62//23 63//23
f 55//24 63//24 54//24
f 54//24 63//24 64//24
f 54//6 64//6 53//6
f 53//6 64//6 65//6
f 53//25 65//25 52//25
f 52//25 65//25 66//25
f 52//26 66//26 51//26
f 51//26 66//26 67//26
f 51//27 67//27 50//27
f 50//27 67//27 68//27
f 50//28 68//28 49//28
f 49//28 68//28 69//28
f 49//29 69//29 48//29
f 48//29 69//29 70//29
f 48//30 70//30 47//30
f 47//30 70//30 71//30
f 47//31 71//31 46//31
f 46//31 71//31 72//31
f 46//32 72//32 45//32
f 45//32 72//32 73//32
f 45//33 73//33 44//33
f 44//33 73//33 74//33
f 44//34 74//34 43//34
f 43//34 74//34 75//34
f 43//15 75//15 42//15
f 42//15 75//15 76//15
f 42//35 76//35 41//35
f 41//35 76//35 77//35
f 41//36 77//36 40//36
f 40//36 77//36 78//36
f 40//37 78//37 39//37
f 39//37 78//37 79//37
f 39//38 79//38 38//38
f 38//38 79//38 80//38
f 18//39 38//39 1//39
f 1//39 38//39 37//39
f 1//39 37//39 58//39
f 38//39 18//39 39//39
f 39//39 18//39 17//39
f 39//39 17//39 40//39
f 40//39 17//39 16//39
f 40//39 16//39 41//39
f 41//39 16//39 15//39
f 41//39 15//39 42//39
f 42//39 15//39 14//39
f 42//39 14//39 43//39
f 43//39 14//39 44//39
f 44//39 14//39 13//39
f 44//39 13//39 45//39
f 45//39 13//39 12//39
f 45//39 12//39 46//39
f 46//39 12//39 11//39
f 46//39 11//39 47//39
f 47//39 11//39 10//39
f 47//39 10//39 48//39
f 48//39 10//39 49//39
f 49//39 10//39 9//39
f 49//39 9//39 50//39
f 50//39 9//39 8//39
f 50//39 8//39 51//39
f 51//39 8//39 7//39
f 51//39 7//39 52//39
f 52//39 7//39 6//39
f 52//39 6//39 53//39
f 53//39 6//39 5//39
f 53//39 5//39 54//39
f 54//39 5//39 55//39
f 55//39 5//39 4//39
f 55//39 4//39 56//39
f 56//39 4//39 3//39
f 56//39 3//39 57//39
f 57//39 3//39 2//39
f 57//39 2//39 58//39
f 58//39 2//39 1//39
f 36//40 60//40 19//40
f 19//40 60//40 59//40
f 19//40 59//40 80//40
f 60//40 36//40 61//40
f 61//40 36//40 35//40
f 61//40 35//40 62//40
f 62//40 35//40 34//40
f 62//40 34//40 63//40
f 63//40 34//40 33//40
f 63//40 33//40 64//40
f 64//40 33//40 32//40
f 64//40 32//40 65//40
f 65//40 32//40 66//40
f 66//40 32//40 31//40
f 66//40 31//40 67//40
f 67//40 31//40 30//40
f 67//40 30//40 68//40
f 68//40 30//40 29//40
f 68//40 29//40 69//40
f 69//40 29//40 28//40
f 69//40 28//40 70//40
f 70//40 28//40 71//40
f 71//40 28//40 27//40
f 71//40 27//40 72//40
f 72//40 27//40 26//40
f 72//40 26//40 73//40
f 73//40 26//40 25//40
f 73//40 25//40 74//40
f 74//40 25//40 24//40
f 74//40 24//40 75//40
f 75//40 24//40 23//40
f 75//40 23//40 76//40
f 76//40 23//40 77//40
f 77//40 23//40 22//40
f 77//40 22//40 78//40
f 78//40 22//40 21//40
f 78//40 21//40 79//40
f 79//40 21//40 20//40
f 79//40 20//40 80//40
f 80//40 20//40 19//40
